<mxfile host="app.diagrams.net" modified="2022-07-08T01:41:17.719Z" agent="5.0 (Windows)" etag="9rcc_cPAXr_vBPcx1mwu" version="20.0.4" type="github">
  <diagram id="22qIEwBwCDpmJvxJm6BU" name="Page-1">
    <mxGraphModel dx="2370" dy="1228" grid="0" gridSize="10" guides="1" tooltips="1" connect="1" arrows="1" fold="1" page="1" pageScale="1" pageWidth="1200" pageHeight="1200" background="#000000" math="0" shadow="0">
      <root>
        <mxCell id="0" />
        <mxCell id="1" parent="0" />
        <mxCell id="7zH_Swz3p9qA8tHNN0a1-1" value="&lt;font color=&quot;#FFFFFF&quot;&gt;PLAY&lt;/font&gt;" style="rounded=0;whiteSpace=wrap;html=1;fontSize=40;fontColor=#0000FF;strokeColor=#000000;fillColor=#000000;" vertex="1" parent="1">
          <mxGeometry x="355" y="557" width="490" height="60" as="geometry" />
        </mxCell>
        <mxCell id="7zH_Swz3p9qA8tHNN0a1-2" value="&lt;font color=&quot;#FFFFFF&quot;&gt;ABOUT&lt;/font&gt;" style="rounded=0;whiteSpace=wrap;html=1;fontSize=40;fontColor=#0000FF;strokeColor=#000000;fillColor=#000000;" vertex="1" parent="1">
          <mxGeometry x="355" y="729" width="490" height="60" as="geometry" />
        </mxCell>
        <mxCell id="7zH_Swz3p9qA8tHNN0a1-3" value="&lt;font color=&quot;#FFFFFF&quot;&gt;CONTROL&lt;/font&gt;" style="rounded=0;whiteSpace=wrap;html=1;fontSize=40;fontColor=#0000FF;strokeColor=#000000;fillColor=#000000;" vertex="1" parent="1">
          <mxGeometry x="355" y="644" width="490" height="60" as="geometry" />
        </mxCell>
        <mxCell id="7zH_Swz3p9qA8tHNN0a1-4" value="&lt;font color=&quot;#FFFFFF&quot;&gt;QUIT&lt;/font&gt;" style="rounded=0;whiteSpace=wrap;html=1;fontSize=40;fontColor=#0000FF;strokeColor=#000000;fillColor=#000000;" vertex="1" parent="1">
          <mxGeometry x="355" y="814" width="490" height="60" as="geometry" />
        </mxCell>
        <mxCell id="7zH_Swz3p9qA8tHNN0a1-6" value="&lt;font style=&quot;font-size: 110px;&quot; color=&quot;#FFFFFF&quot;&gt;PAC-MAN&lt;/font&gt;" style="rounded=0;whiteSpace=wrap;html=1;fontSize=40;fontColor=#0000FF;strokeColor=none;fillColor=#000000;" vertex="1" parent="1">
          <mxGeometry x="329" y="69" width="543" height="126" as="geometry" />
        </mxCell>
        <mxCell id="7zH_Swz3p9qA8tHNN0a1-7" value="&lt;font color=&quot;#FFFF66&quot;&gt;&lt;b&gt;&lt;font style=&quot;font-size: 50px;&quot;&gt;GIT MORBED®&lt;/font&gt;&lt;/b&gt;&lt;/font&gt;" style="rounded=0;whiteSpace=wrap;html=1;fontSize=40;fontColor=#0000FF;strokeColor=#000000;fillColor=#000000;" vertex="1" parent="1">
          <mxGeometry x="403" y="935" width="395" height="60" as="geometry" />
        </mxCell>
        <mxCell id="7zH_Swz3p9qA8tHNN0a1-8" value="" style="triangle;whiteSpace=wrap;html=1;fontSize=50;fontColor=#FFFFFF;strokeColor=#000000;fillColor=#FFFF66;" vertex="1" parent="1">
          <mxGeometry x="389" y="567.5" width="64" height="39" as="geometry" />
        </mxCell>
        <mxCell id="7zH_Swz3p9qA8tHNN0a1-10" value="&lt;font color=&quot;#FFFF66&quot;&gt;&lt;span&gt;©2001 2022 GIT MORBED LTD.&lt;br&gt;ALL RIGHTS RESERVED&lt;br&gt;&lt;/span&gt;&lt;/font&gt;" style="rounded=0;whiteSpace=wrap;html=1;fontSize=40;fontColor=#0000FF;strokeColor=#000000;fillColor=#000000;" vertex="1" parent="1">
          <mxGeometry x="292" y="1023" width="617" height="60" as="geometry" />
        </mxCell>
      </root>
    </mxGraphModel>
  </diagram>
</mxfile>
